<svg width="1440" height="217" viewBox="0 0 1440 217" fill="none" xmlns="http://www.w3.org/2000/svg">
<path d="M1472.12 91.3184C1385.9 94.1348 1265.31 91.7256 1156.76 92.9285C1021.07 94.432 978.009 102.02 909.329 101.557C840.65 101.095 786.323 85.6817 716.02 83.7896C645.717 81.8974 572.478 84.1394 468.133 88.7591C363.791 93.379 187.813 101.172 144.198 103.102C109.322 104.646 47.4956 104.047 20.9472 103.554L-31.9999 105.898" stroke="black"/>
<path d="M1472.12 111.318C1385.9 114.135 1265.31 111.726 1156.76 112.928C1021.07 114.432 978.009 122.02 909.329 121.557C840.65 121.095 786.323 105.682 716.02 103.79C645.717 101.897 572.478 104.139 468.133 108.759C363.791 113.379 187.813 121.172 144.198 123.102C109.322 124.646 47.4956 124.047 20.9472 123.554L-31.9999 125.898" stroke="black"/>
</svg>
