<svg width="1440" height="216" viewBox="0 0 1440 216" fill="none" xmlns="http://www.w3.org/2000/svg">
<path d="M-6 110.318C80.2185 113.135 200.811 110.726 309.363 111.928C445.053 113.432 488.112 121.02 556.792 120.557C625.471 120.095 679.798 104.682 750.101 102.79C820.404 100.897 893.643 103.139 997.988 107.759C1102.33 112.379 1278.31 120.172 1321.92 122.102C1356.8 123.646 1418.63 123.047 1445.17 122.554L1498.12 124.898" stroke="black"/>
<path d="M-6 91.3184C80.2185 94.1348 200.811 91.7256 309.363 92.9285C445.053 94.432 488.112 102.02 556.792 101.557C625.471 101.095 679.798 85.6817 750.101 83.7896C820.404 81.8974 893.643 84.1394 997.988 88.7591C1102.33 93.379 1278.31 101.172 1321.92 103.102C1356.8 104.646 1418.63 104.047 1445.17 103.554L1498.12 105.898" stroke="black"/>
</svg>
