<svg width="1440" height="210" viewBox="0 0 1440 210" fill="none" xmlns="http://www.w3.org/2000/svg">
<path d="M-30.5665 52.6831C55.3262 60.6841 175.845 65.5379 284.128 73.2725C419.481 82.9406 462.006 93.1066 530.588 96.7788C599.171 100.451 654.327 88.3359 724.616 90.6788C794.906 93.0218 867.878 99.6678 971.755 110.56C1075.63 121.452 1250.82 139.823 1294.24 144.375C1328.96 148.016 1390.71 151.139 1417.24 152.245L1469.95 157.772" stroke="black"/>
<path d="M-166 130.966C-79.7413 129.966 40.6268 122.225 149.126 118.625C284.749 114.125 328.102 119.801 396.694 116.301C465.285 112.801 518.877 95.0001 589.028 90.0002C659.178 85.0002 732.446 84 836.891 84C941.337 84 1117.49 84 1161.14 84C1196.06 84 1257.79 80.6667 1284.29 79L1449 70" stroke="black"/>
</svg>
