<svg width="1440" height="138" viewBox="0 0 1440 138" fill="none" xmlns="http://www.w3.org/2000/svg">
<path d="M-29.502 25.2744C56.3176 34.0253 176.79 39.9314 285.001 48.6113C420.265 59.4612 462.699 69.9982 531.247 74.2692C599.794 78.5402 655.055 66.9072 725.321 69.864C795.586 72.8207 944.164 38.2506 1047.94 50.0496C1151.72 61.8485 1309.22 97.8437 1352.59 102.775C1387.29 106.719 1390.86 136.139 1417.38 137.477L1517.8 86.8575" stroke="black"/>
<path d="M-30.5664 0.498047C55.3262 8.49905 175.845 13.3528 284.128 21.0874C419.481 30.7556 462.006 40.9215 530.589 44.5937C599.171 48.266 654.328 36.1508 724.617 38.4938C794.906 40.8367 867.878 47.483 971.755 58.375C1075.63 69.267 1250.82 87.638 1294.24 92.19C1328.96 95.831 1390.71 98.954 1417.24 100.06L1469.95 105.587" stroke="black"/>
</svg>
